<svg width="16" height="16" viewBox="0 0 16 16" fill="none" xmlns="http://www.w3.org/2000/svg">
    <path d="M8.74538 12.5593C8.86251 12.6765 8.9283 12.8354 8.9283 13.0011C8.9283 13.1668 8.86251 13.3257 8.74538 13.4429L7.96882 14.2242C7.14758 15.0449 6.03395 15.5058 4.87291 15.5054C3.71187 15.505 2.59853 15.0434 1.77781 14.2222C0.957086 13.401 0.496216 12.2873 0.496582 11.1263C0.496949 9.96526 0.958522 8.85191 1.77976 8.03119L3.66414 6.14682C4.45295 5.35737 5.51364 4.89921 6.62915 4.8661C7.74466 4.83299 8.83066 5.22742 9.66492 5.96869C9.72647 6.02327 9.77668 6.08944 9.81266 6.16343C9.84865 6.23741 9.86971 6.31776 9.87464 6.39988C9.87957 6.482 9.86828 6.56429 9.84141 6.64205C9.81454 6.71981 9.77262 6.79151 9.71804 6.85307C9.66346 6.91463 9.59729 6.96483 9.52331 7.00081C9.44932 7.0368 9.36898 7.05786 9.28686 7.06279C9.20473 7.06772 9.12245 7.05643 9.04469 7.02956C8.96693 7.0027 8.89522 6.96077 8.83367 6.90619C8.23782 6.37706 7.46234 6.09554 6.66581 6.11921C5.86928 6.14288 5.11188 6.46995 4.54851 7.03354L2.66414 8.91557C2.07797 9.50174 1.74866 10.2968 1.74866 11.1257C1.74866 11.9547 2.07797 12.7497 2.66414 13.3359C3.25031 13.9221 4.04532 14.2514 4.87429 14.2514C5.70326 14.2514 6.49828 13.9221 7.08445 13.3359L7.86101 12.5593C7.91906 12.5012 7.98799 12.4551 8.06386 12.4237C8.13973 12.3922 8.22106 12.376 8.3032 12.376C8.38533 12.376 8.46666 12.3922 8.54254 12.4237C8.61841 12.4551 8.68734 12.5012 8.74538 12.5593ZM14.2204 1.77807C13.399 0.958552 12.2861 0.498306 11.1259 0.498306C9.96558 0.498306 8.85268 0.958552 8.03132 1.77807L7.25476 2.55541C7.13759 2.67269 7.0718 2.83171 7.07188 2.99749C7.07195 3.16326 7.13788 3.32222 7.25515 3.4394C7.37243 3.55657 7.53144 3.62235 7.69722 3.62228C7.863 3.62221 8.02196 3.55628 8.13913 3.43901L8.9157 2.66244C9.50187 2.07627 10.2969 1.74697 11.1259 1.74697C11.9548 1.74697 12.7498 2.07627 13.336 2.66244C13.9222 3.24861 14.2515 4.04363 14.2515 4.8726C14.2515 5.70157 13.9222 6.49659 13.336 7.08276L11.4516 8.96869C10.888 9.53195 10.1304 9.8586 9.33387 9.88183C8.53734 9.90507 7.76203 9.62314 7.16648 9.09369C7.10492 9.03911 7.03322 8.99719 6.95546 8.97032C6.8777 8.94345 6.79541 8.93216 6.71329 8.93709C6.54744 8.94706 6.39233 9.0225 6.2821 9.14682C6.22752 9.20837 6.1856 9.28008 6.15873 9.35784C6.13186 9.4356 6.12057 9.51789 6.12551 9.60001C6.13547 9.76586 6.21091 9.92096 6.33523 10.0312C7.16929 10.7727 8.25517 11.1674 9.37068 11.1346C10.4862 11.1017 11.547 10.6439 12.336 9.85463L14.2204 7.97026C15.0404 7.14883 15.5009 6.0356 15.5009 4.87494C15.5009 3.71429 15.0404 2.60105 14.2204 1.77963V1.77807Z" fill="black"></path>
</svg>