<svg class="social-icon-fill" width="30" height="30" viewBox="0 0 30 30" fill="none" xmlns="http://www.w3.org/2000/svg"><path d="M14.97 27.5C14.32 27.5 13.23 27.45 11.92 26.69C11.53 26.47 11.19 26.24 10.89 26.04C10.08 25.5 9.69 25.26 9.09 25.26C8.66 25.26 8.23 25.31 7.85 25.36C7.48 25.4 7.17 25.44 6.82 25.44C6.57 25.44 5.95 25.42 5.44 25C5.15 24.77 4.94 24.45 4.8 24.03C4.77 23.94 4.74 23.86 4.72 23.77C4.3 23.69 3.89 23.6 3.52 23.48C2.67 23.21 2.07 22.88 1.67 22.46C1.56 22.35 1.4 22.18 1.26 21.94C1.09 21.64 1 21.31 1 20.94C1 20.33 1.32 19.77 1.87 19.4C2.02 19.3 2.19 19.22 2.36 19.15C2.43 19.12 2.51 19.1 2.59 19.08C2.71 19.05 2.85 19.03 2.97 19.03C2.97 19.03 3.06 19.03 3.28 18.95C3.48 18.88 3.73 18.77 3.98 18.63C4.46 18.37 4.97 18.01 5.27 17.73C5.56 17.45 5.98 16.95 6.33 16.45C6.41 16.34 6.48 16.23 6.55 16.12C6.44 16.08 6.32 16.04 6.2 16.01C5.76 15.87 5.22 15.69 4.76 15.4C4.03 14.94 3.62 14.24 3.62 13.44C3.62 12.77 3.96 12.12 4.54 11.65C5.19 11.13 6.15 10.95 6.82 11.08C6.78 10.56 6.76 10.02 6.76 9.56C6.76 3.65 12.31 2.03 15.24 2C15.24 2 15.24 2 15.25 2C18.87 2 20.91 3.58 21.99 4.9C23.26 6.47 23.72 8.34 23.72 9.56C23.72 9.97 23.7 10.48 23.67 11.09C24.34 10.96 25.3 11.15 25.95 11.66C26.54 12.12 26.87 12.78 26.87 13.45C26.87 14.25 26.46 14.94 25.73 15.41C25.27 15.7 24.73 15.87 24.33 16C24.2 16.04 24.06 16.09 23.94 16.13C24.01 16.23 24.08 16.34 24.16 16.46C24.51 16.96 24.92 17.46 25.22 17.74C25.52 18.02 26.03 18.38 26.51 18.64C26.77 18.78 27.01 18.89 27.21 18.96C27.65 19.12 27.53 19.04 27.53 19.04C27.65 19.04 27.78 19.06 27.91 19.09C27.98 19.11 28.06 19.13 28.14 19.16C28.3 19.22 28.47 19.3 28.62 19.4C29.18 19.77 29.5 20.33 29.5 20.94C29.5 21.3 29.41 21.63 29.24 21.94C29.11 22.18 28.94 22.35 28.86 22.43C28.43 22.88 27.82 23.22 26.98 23.48C26.61 23.6 26.2 23.69 25.78 23.77C25.76 23.86 25.73 23.95 25.7 24.03C25.64 24.19 25.48 24.66 25.06 25C24.52 25.44 23.86 25.44 23.64 25.44C23.34 25.44 23 25.4 22.67 25.36C22.26 25.31 21.83 25.26 21.41 25.26C20.8 25.26 20.42 25.5 19.61 26.04C19.3 26.25 18.96 26.47 18.57 26.7C17.15 27.52 15.98 27.51 15.34 27.51H15.13C15.07 27.5 15.02 27.5 14.97 27.5ZM15.23 26H15.34C15.87 26 16.75 26.01 17.82 25.39C18.18 25.18 18.49 24.98 18.77 24.79C19.6 24.23 20.32 23.76 21.41 23.76C21.92 23.76 22.42 23.82 22.82 23.87C23.12 23.91 23.4 23.94 23.65 23.94C23.72 23.94 23.99 23.94 24.11 23.84C24.21 23.76 24.27 23.59 24.29 23.53C24.34 23.37 24.38 23.2 24.41 23.07C24.48 22.77 24.77 22.4 25.08 22.36C25.6 22.29 26.11 22.18 26.55 22.05C27.32 21.81 27.64 21.55 27.76 21.43C27.84 21.35 27.9 21.28 27.95 21.2C27.99 21.12 28.01 21.04 28.01 20.94C28.01 20.81 27.9 20.72 27.81 20.65C27.74 20.6 27.67 20.58 27.63 20.56L27.53 20.53C27.31 20.53 27.04 20.47 26.72 20.36C26.44 20.26 26.14 20.12 25.8 19.94C25.2 19.61 24.59 19.19 24.19 18.82C23.82 18.47 23.34 17.89 22.93 17.3C22.72 17.01 22.55 16.73 22.44 16.5C22.37 16.36 22.32 16.25 22.29 16.17C22.28 16.14 22.25 16.05 22.25 16.02C22.24 15.95 22.23 15.89 22.23 15.82C22.26 15.32 22.65 15.08 22.77 15C23.04 14.83 23.37 14.72 23.84 14.57C24.22 14.45 24.64 14.31 24.94 14.12C25.34 13.87 25.38 13.61 25.38 13.43C25.38 13.13 25.13 12.9 25.03 12.82C24.79 12.63 24.48 12.52 24.2 12.52C23.89 12.52 23.67 12.62 23.47 12.72C23.27 12.81 23.15 12.86 23.06 12.89C22.83 12.96 22.57 12.9 22.38 12.75C22.19 12.6 22.09 12.36 22.11 12.12C22.19 11.03 22.23 10.16 22.23 9.56C22.23 8.64 21.87 7.11 20.84 5.85C19.59 4.32 17.67 3.51 15.27 3.5C12.85 3.52 8.28 4.82 8.28 9.56C8.28 10.33 8.34 11.38 8.4 12.12C8.42 12.36 8.32 12.6 8.13 12.76C7.94 12.92 7.69 12.97 7.45 12.9C7.36 12.87 7.24 12.83 7.06 12.74C6.85 12.64 6.62 12.54 6.31 12.54C6.03 12.54 5.71 12.65 5.48 12.84C5.37 12.92 5.13 13.15 5.13 13.45C5.13 13.63 5.18 13.89 5.57 14.14C5.87 14.33 6.29 14.46 6.63 14.57C7.14 14.73 7.46 14.84 7.74 15.01C7.87 15.09 8.26 15.33 8.28 15.83C8.28 15.9 8.28 15.96 8.26 16.03C8.25 16.06 8.23 16.15 8.21 16.18C8.18 16.26 8.13 16.37 8.06 16.51C7.94 16.73 7.77 17.01 7.57 17.3C7.16 17.89 6.68 18.47 6.31 18.82C5.91 19.2 5.31 19.62 4.7 19.94C4.37 20.12 4.06 20.26 3.78 20.36C3.47 20.47 3.2 20.53 2.97 20.53L2.87 20.56C2.83 20.57 2.76 20.6 2.69 20.65C2.6 20.71 2.49 20.8 2.49 20.93C2.49 21.03 2.51 21.11 2.55 21.19C2.59 21.27 2.66 21.34 2.71 21.39C2.86 21.55 3.18 21.8 3.96 22.05C4.4 22.19 4.91 22.3 5.43 22.36C5.74 22.4 5.99 22.63 6.06 22.93L6.09 23.05C6.12 23.2 6.16 23.37 6.21 23.53C6.23 23.59 6.29 23.76 6.39 23.83C6.47 23.9 6.64 23.93 6.85 23.93C7.1 23.93 7.38 23.89 7.65 23.86C8.08 23.81 8.58 23.75 9.09 23.75C10.18 23.75 10.89 24.23 11.72 24.78C12.01 24.97 12.32 25.18 12.67 25.39C13.74 26.01 14.59 26 15.11 26H15.23ZM25.13 23.21L25.17 23.22L25.13 23.21Z" fill="white"></path></svg>