<svg width="24" height="18" viewBox="0 0 20 18" fill="none" xmlns="http://www.w3.org/2000/svg">
    <path d="M6.2896 17.126C13.8368 17.126 17.9648 10.8732 17.9648 5.45082C17.9648 5.27322 17.9648 5.09642 17.9528 4.92042C18.7559 4.33955 19.4491 3.62033 20 2.79642C19.2512 3.12842 18.4567 3.34605 17.6432 3.44202C18.4998 2.92926 19.141 2.12267 19.4472 1.17242C18.6417 1.65043 17.7605 1.98728 16.8416 2.16842C16.2229 1.51057 15.4047 1.07496 14.5135 0.928992C13.6223 0.783027 12.7078 0.93485 11.9116 1.36097C11.1154 1.78708 10.4819 2.46373 10.109 3.28621C9.73605 4.10869 9.64462 5.03114 9.8488 5.91082C8.21741 5.82899 6.62146 5.40501 5.16455 4.66643C3.70763 3.92784 2.4223 2.89114 1.392 1.62362C0.867274 2.52695 0.70656 3.59631 0.942583 4.61397C1.17861 5.63164 1.79362 6.52108 2.6624 7.10122C2.00936 7.08209 1.37054 6.90592 0.8 6.58762V6.63962C0.800259 7.587 1.12821 8.50512 1.72823 9.23826C2.32824 9.9714 3.16338 10.4744 4.092 10.662C3.4879 10.8268 2.85406 10.8509 2.2392 10.7324C2.50151 11.5477 3.01202 12.2606 3.69937 12.7715C4.38671 13.2825 5.21652 13.5658 6.0728 13.582C5.22203 14.2508 4.24776 14.7452 3.20573 15.037C2.16369 15.3289 1.07435 15.4124 0 15.2828C1.87653 16.487 4.05994 17.1258 6.2896 17.1228" fill="#1DA1F2"></path>
</svg>